<svg id="Capa_1" enable-background="new 0 0 512 512" height="512" viewBox="0 0 512 512" width="512" xmlns="http://www.w3.org/2000/svg"><g><path d="m73.649 376.71c7.575 9.031 16.567 16.844 26.698 23.105 17.561 10.853 37.755 16.59 58.398 16.59h194.51c20.644 0 40.838-5.737 58.398-16.59 10.131-6.261 19.123-14.075 26.698-23.105z"/><path d="m52.68 277.014h147.351c-7.134-10.677-11.303-23.495-11.303-37.271v-77.256h134.543v77.256c0 13.777-4.169 26.594-11.303 37.271h147.352l52.68-56.584-76.295-78.882-179.705-45.954-179.705 45.954-76.295 78.882z"/><path d="m293.271 239.743v-47.256h-74.543v47.256c0 20.552 16.72 37.271 37.271 37.271s37.272-16.719 37.272-37.271z"/><path d="m60.976 307.014h390.049v39.696h-390.049z"/></g></svg>