<?xml version="1.0" encoding="iso-8859-1"?>
<!-- Generator: Adobe Illustrator 19.0.0, SVG Export Plug-In . SVG Version: 6.00 Build 0)  -->
<svg version="1.1" id="Capa_1" xmlns="http://www.w3.org/2000/svg" xmlns:xlink="http://www.w3.org/1999/xlink" x="0px" y="0px"
	 viewBox="0 0 511.999 511.999" style="enable-background:new 0 0 511.999 511.999;" xml:space="preserve">
<g>
	<g>
		<path d="M245.527,187.462h73.449v-45.53c0.001-8.385-6.804-15.19-15.189-15.19h-79.596c-10.256,0-19.919,2.581-28.384,7.118
			l-17.687-17.687c-5.931-5.932-15.55-5.932-21.482,0c-5.932,5.932-5.932,15.55,0,21.482l16.838,16.838
			c-3.97,6.165-6.845,13.095-8.359,20.515c-33.223,1.762-62.045,10.249-85.811,25.325c-22.833,14.483-41.082,35.047-54.24,61.121
			C8.434,294.412,0,336.008,0,385.085c0,8.389,6.801,15.19,15.19,15.19h104.246c8.389,0,15.19-6.801,15.19-15.19V306.9
			c0-16.68,2.382-29.162,29.272-32.337v16.341c0,34.588,28.139,62.727,62.727,62.727h2.798c34.587,0,62.726-28.139,62.726-62.727
			v-17.144h11.637c8.385,0,15.19-6.795,15.19-15.19v-40.73h-73.449c-8.395,0-15.19-6.795-15.19-15.19
			C230.337,194.267,237.132,187.462,245.527,187.462z M243.214,287.441v-13.675h18.555v17.139c0,17.836-14.511,32.347-32.346,32.347
			h-2.798c-17.836,0-32.347-14.511-32.347-32.347v-17.139h18.555v13.675c0,8.389,6.801,15.19,15.19,15.19
			C236.413,302.631,243.214,295.83,243.214,287.441z"/>
	</g>
</g>
<g>
	<g>
		<path d="M496.81,153.41H349.353v93.689h147.456c8.389,0,15.19-6.801,15.19-15.19V168.6C512,160.211,505.199,153.41,496.81,153.41z
			"/>
	</g>
</g>
<g>
</g>
<g>
</g>
<g>
</g>
<g>
</g>
<g>
</g>
<g>
</g>
<g>
</g>
<g>
</g>
<g>
</g>
<g>
</g>
<g>
</g>
<g>
</g>
<g>
</g>
<g>
</g>
<g>
</g>
</svg>
